<?xml version="1.0" standalone="no"?>
<!DOCTYPE svg PUBLIC "-//W3C//DTD SVG 20010904//EN"
 "http://www.w3.org/TR/2001/REC-SVG-20010904/DTD/svg10.dtd">
<svg version="1.0" xmlns="http://www.w3.org/2000/svg"
 width="700.000000pt" height="700.000000pt" viewBox="0 0 700.000000 700.000000"
 preserveAspectRatio="xMidYMid meet">
<metadata>
Created by potrace 1.11, written by Peter Selinger 2001-2013
</metadata>
<g transform="translate(0.000000,700.000000) scale(0.100000,-0.100000)"
fill="#000000" stroke="none">
<path d="M4269 5311 c-19 -15 -31 -41 -47 -103 -25 -94 -41 -186 -49 -271 l-5
-57 -57 -16 c-175 -48 -188 -57 -177 -117 10 -55 54 -77 154 -80 l80 -1 16
-111 c9 -60 24 -159 33 -220 9 -60 20 -121 26 -135 5 -14 15 -52 22 -85 20
-92 104 -264 149 -302 35 -31 41 -33 117 -33 72 0 82 2 106 26 29 29 30 26
-25 184 -54 156 -109 403 -130 588 l-18 154 26 13 c22 11 88 32 212 65 73 20
105 127 51 170 -24 19 -36 21 -83 15 -30 -4 -89 -15 -132 -26 -42 -10 -81 -19
-87 -19 -8 0 -11 56 -11 174 0 200 1 197 -88 204 -46 3 -62 0 -83 -17z"/>
<path d="M2231 5204 c-72 -22 -121 -55 -121 -80 0 -6 25 -63 55 -125 42 -87
55 -125 55 -160 0 -54 -31 -151 -62 -193 -57 -79 89 -105 185 -33 31 24 54 55
87 121 44 89 45 89 45 195 0 141 -33 264 -76 286 -38 20 -80 17 -168 -11z"/>
<path d="M1519 5031 c-55 -18 -140 -83 -194 -148 -81 -97 -114 -173 -141 -318
-6 -36 13 -493 25 -585 4 -36 13 -74 19 -85 6 -11 16 -39 22 -62 24 -94 187
-222 322 -250 82 -17 260 -13 316 7 85 31 182 237 158 334 -9 37 -58 60 -99
46 -42 -14 -62 -32 -120 -107 -59 -75 -90 -90 -143 -71 -56 20 -128 105 -153
180 -33 100 -44 259 -30 417 12 144 19 172 68 289 57 137 87 160 150 119 57
-38 68 -74 48 -155 -17 -75 -12 -94 33 -117 29 -15 122 -20 177 -9 67 13 101
161 65 280 -32 104 -68 146 -169 196 -84 42 -86 42 -206 45 -67 1 -134 -1
-148 -6z"/>
<path d="M5643 4797 c-18 -7 -36 -16 -42 -22 -9 -10 -91 -232 -137 -372 -13
-39 -30 -127 -39 -196 -8 -68 -24 -167 -35 -220 -18 -90 -37 -252 -62 -532
-13 -149 -6 -299 20 -430 11 -55 23 -122 27 -150 3 -27 15 -78 26 -111 19 -59
22 -62 63 -74 98 -27 119 6 122 189 3 165 20 331 84 816 27 204 61 461 75 572
14 111 34 260 45 332 18 118 19 134 5 160 -23 46 -87 62 -152 38z"/>
<path d="M2787 4780 c-50 -13 -87 -33 -114 -62 -56 -60 -153 -298 -153 -375 0
-19 -5 -44 -11 -55 -12 -23 -15 -204 -4 -272 4 -22 13 -48 21 -56 7 -9 20 -35
29 -59 18 -53 36 -75 108 -138 132 -116 351 -135 436 -38 34 39 96 164 104
210 3 17 8 37 12 46 8 22 -42 69 -74 69 -18 0 -43 -19 -85 -65 -34 -35 -68
-74 -77 -86 -21 -30 -73 -28 -106 3 -54 51 -80 111 -96 228 l-5 35 92 1 c133
2 156 14 204 111 102 201 107 323 18 419 -64 69 -202 108 -299 84z m159 -196
c15 -60 -28 -206 -73 -246 -29 -27 -81 -34 -89 -14 -9 23 18 127 51 201 35 78
42 85 76 85 23 0 30 -6 35 -26z"/>
<path d="M3492 4778 c-52 -18 -128 -92 -149 -146 -26 -67 -23 -166 6 -223 28
-54 98 -128 216 -226 110 -92 137 -128 142 -190 6 -61 -10 -83 -64 -90 -37 -5
-46 -2 -71 23 -16 16 -37 52 -47 79 -43 119 -41 115 -80 115 -90 0 -123 -54
-106 -175 11 -78 26 -104 83 -145 62 -45 135 -63 233 -58 101 5 169 35 239
107 39 40 49 57 53 93 11 97 -39 186 -202 359 -67 70 -117 133 -132 164 -27
59 -31 133 -7 142 21 8 41 -14 78 -84 24 -44 41 -62 76 -80 52 -26 141 -31
159 -10 61 74 -26 257 -153 322 -50 25 -71 30 -149 32 -51 1 -107 -3 -125 -9z"/>
<path d="M2454 3510 c-31 -12 -74 -68 -74 -95 0 -13 9 -77 20 -142 12 -65 27
-158 35 -208 8 -49 23 -122 34 -162 10 -40 17 -74 14 -76 -2 -3 10 -60 28
-128 17 -68 37 -160 44 -204 28 -168 79 -352 119 -431 28 -54 65 -139 86 -197
13 -33 32 -64 45 -73 33 -21 124 -28 218 -16 56 7 86 7 108 -1 25 -10 36 -9
67 8 46 25 46 26 71 335 11 135 27 288 35 340 9 52 22 138 30 190 7 52 32 217
55 365 24 151 40 284 36 302 -10 57 -33 74 -107 80 -36 3 -86 3 -111 -1 -50
-8 -41 8 -106 -181 -106 -310 -118 -372 -131 -695 -6 -143 -15 -253 -23 -280
l-13 -45 -13 70 c-14 79 -100 447 -202 860 -38 154 -69 289 -69 301 0 30 -26
49 -97 73 -69 23 -69 23 -99 11z"/>
<path d="M3721 3365 c-63 -15 -89 -38 -101 -90 -20 -88 43 -153 155 -162 52
-4 64 -2 89 18 40 32 86 107 86 142 0 37 -27 82 -57 96 -31 14 -104 13 -172
-4z"/>
<path d="M4479 3200 c-70 -12 -133 -44 -161 -81 -42 -56 -96 -190 -123 -303
-50 -210 -41 -480 19 -559 13 -18 29 -48 35 -68 11 -35 85 -113 148 -157 89
-63 290 -87 368 -45 52 28 71 49 106 123 31 66 54 140 63 207 5 38 3 44 -23
62 -46 33 -73 27 -121 -26 -23 -27 -51 -58 -61 -69 -10 -12 -19 -27 -19 -33 0
-6 -9 -20 -20 -31 -29 -29 -81 -26 -119 6 -56 46 -80 100 -115 257 l-6 27 57
0 c76 1 179 23 203 45 25 22 62 102 95 206 35 105 39 224 10 279 -31 60 -67
101 -106 121 -36 18 -152 50 -174 48 -5 -1 -31 -5 -56 -9z m134 -229 c10 -42
-7 -160 -32 -215 -28 -63 -58 -82 -120 -77 -27 2 5 167 53 275 24 54 27 57 58
54 27 -3 33 -8 41 -37z"/>
<path d="M3714 2971 c-23 -10 -50 -32 -62 -48 -56 -79 -83 -271 -85 -608 -1
-170 2 -205 22 -258 8 -19 8 -34 1 -47 -13 -24 3 -61 39 -87 38 -28 183 -48
241 -33 68 17 83 32 77 77 -48 391 -49 403 -44 678 3 149 7 279 9 289 2 15 -8
23 -47 37 -64 23 -100 23 -151 0z"/>
<path d="M1514 2599 c-51 -15 -67 -42 -84 -147 -19 -115 -18 -535 1 -642 13
-74 28 -95 84 -121 48 -22 75 -24 99 -6 18 13 18 17 1 103 -24 116 -24 494 1
730 6 57 4 63 -17 78 -26 18 -39 19 -85 5z"/>
<path d="M5435 2440 c-11 -5 -37 -11 -57 -15 -90 -14 -147 -158 -99 -253 10
-20 21 -50 25 -65 4 -19 18 -33 44 -44 20 -10 49 -28 64 -41 23 -21 32 -23 77
-17 40 5 56 14 77 38 37 43 69 116 95 214 31 116 23 133 -80 168 -79 26 -112
30 -146 15z"/>
<path d="M1855 2327 c-69 -32 -122 -163 -112 -276 25 -261 33 -292 85 -330 38
-27 100 -35 132 -19 33 18 66 69 86 134 l17 52 29 -41 c16 -23 37 -54 46 -70
9 -15 25 -29 34 -32 22 -8 87 20 95 40 3 9 -6 42 -20 73 -37 80 -78 233 -86
321 l-6 73 -85 39 c-98 44 -171 56 -215 36z m125 -137 c28 -28 26 -70 -10
-212 -35 -138 -46 -166 -63 -149 -8 8 -12 61 -12 159 0 197 27 260 85 202z"/>
</g>
</svg>
